<svg width="32" height="32" viewBox="0 0 32 32" fill="none" xmlns="http://www.w3.org/2000/svg">
<path d="M30.94 15.66C29.7977 12.6708 27.8059 10.0811 25.21 8.21L30 3.41L28.59 2L2 28.59L3.41 30L8.51 24.91C10.7868 26.2359 13.3657 26.9555 16 27C19.2595 26.8774 22.4116 25.8024 25.0668 23.9079C27.722 22.0134 29.7638 19.3824 30.94 16.34C31.0194 16.1203 31.0194 15.8797 30.94 15.66ZM16 22.5C14.6216 22.4994 13.2795 22.0579 12.17 21.24L14 19.43C14.7588 19.8458 15.6319 20.0043 16.4885 19.8817C17.345 19.7592 18.1387 19.3623 18.7505 18.7505C19.3623 18.1387 19.7592 17.345 19.8817 16.4885C20.0043 15.6319 19.8458 14.7588 19.43 14L21.24 12.19C21.9445 13.1576 22.3677 14.3012 22.4628 15.4943C22.5579 16.6874 22.3212 17.8835 21.7789 18.9505C21.2367 20.0175 20.4099 20.9137 19.39 21.5402C18.3701 22.1666 17.1969 22.4988 16 22.5ZM4.53 21.81L9.53 16.81C9.50436 16.5408 9.49435 16.2704 9.5 16C9.50265 14.2769 10.1883 12.6251 11.4067 11.4067C12.6251 10.1883 14.2769 9.50264 16 9.5C16.2641 9.50175 16.5278 9.51845 16.79 9.55L20.57 5.78C19.0988 5.27488 17.5555 5.01147 16 5C12.7405 5.12257 9.58839 6.19756 6.9332 8.09209C4.27802 9.98662 2.23616 12.6176 1.06 15.66C0.980569 15.8797 0.980569 16.1203 1.06 16.34C1.82906 18.3821 3.01023 20.2441 4.53 21.81Z" fill="black" fill-opacity="0.5"/>
</svg>
